<svg xmlns="http://www.w3.org/2000/svg" viewBox="0 0 64 64">
  <rect width="64" height="64" rx="14" fill="#ffffff"/>
  <g transform="translate(0 8)">
    <circle cx="32" cy="9" r="3.2" fill="#f5a623"/>
    <g fill="#2e9b3e">
      <ellipse cx="32" cy="24" rx="4.2" ry="11"/>
      <ellipse cx="32" cy="27" rx="3.6" ry="10" transform="rotate(-32 32 36)"/>
      <ellipse cx="32" cy="27" rx="3.6" ry="10" transform="rotate(32 32 36)"/>
    </g>
    <g fill="#6cc04a">
      <ellipse cx="32" cy="30" rx="3" ry="9" transform="rotate(-62 32 38)"/>
      <ellipse cx="32" cy="30" rx="3" ry="9" transform="rotate(62 32 38)"/>
    </g>
    <path d="M6 40c8-6 18-8 26-8s18 2 26 8c-8-3-17-4-26-4S14 37 6 40Z" fill="#13a2a8"/>
    <path d="M12 45c6-4 13-5 20-5s14 1 20 5c-6-2-13-3-20-3s-14 1-20 3Z" fill="#0d838a"/>
  </g>
</svg>
